Coordinates
version=1
nRows=8
nColumns=40
inDegrees=yes

Units are S.I. units (second, meters, Newtons, ...)
Angles are in degrees.

endheader
time	pelvis_tilt	pelvis_list	pelvis_rotation	pelvis_tx	pelvis_ty	pelvis_tz	hip_flexion_r	hip_adduction_r	hip_rotation_r	knee_angle_r	knee_angle_r_beta	ankle_angle_r	subtalar_angle_r	mtp_angle_r	hip_flexion_l	hip_adduction_l	hip_rotation_l	knee_angle_l	knee_angle_l_beta	ankle_angle_l	subtalar_angle_l	mtp_angle_l	lumbar_extension	lumbar_bending	lumbar_rotation	arm_flex_r	arm_add_r	arm_rot_r	elbow_flex_r	pro_sup_r	wrist_flex_r	wrist_dev_r	arm_flex_l	arm_add_l	arm_rot_l	elbow_flex_l	pro_sup_l	wrist_flex_l	wrist_dev_l
     31.87714286	     -3.88135974	     -6.33305098	      2.95892796	      1.06667848	      0.93055979	      0.47271252	      9.63892283	      5.62026333	    -20.28195582	     12.90951863	     12.90951863	     10.82311479	      6.88904695	     -4.72808724	     35.15948252	    -14.72369350	     -5.35230725	     34.31713976	     34.31713976	     10.49658216	    -15.62293318	     13.09444355	    -12.69282500	      9.18044015	      4.04203555	     22.70946446	    -20.20361067	     -8.55921617	     83.27689306	     44.68250176	      0.00000000	      0.00000000	     -9.18866185	     -7.34114507	     -2.36384481	     34.38348667	     46.33720269	      0.00000000	      0.00000000
     31.88928571	     -4.00260695	     -6.24401594	      2.93457745	      1.06509002	      0.93039991	      0.47215856	      9.24597448	      5.55000276	    -20.19269408	     12.70681623	     12.70681623	     11.12620075	      7.08219507	     -4.82052527	     35.21011947	    -14.39087350	     -5.36345178	     31.34292850	     31.34292850	     10.40177744	    -14.15386993	     13.29508119	    -12.62300984	      9.18803067	      3.94918257	     23.72425639	    -20.14335772	     -8.39491895	     84.91498405	     44.63538279	      0.00000000	      0.00000000	    -10.06310630	     -7.39412940	     -2.24258904	     33.97048129	     46.30383815	      0.00000000	      0.00000000
     31.90142857	     -4.18802750	     -6.28237734	      2.91319777	      1.06348558	      0.93004332	      0.47154212	      8.95898169	      5.59515596	    -20.18466578	     12.55366723	     12.55366723	     11.40600133	      7.20935782	     -4.90605167	     35.40483781	    -14.17294805	     -5.29513262	     28.73355237	     28.73355237	     10.36601768	    -12.76727742	     13.51149284	    -12.46879869	      9.30024658	      3.92114236	     24.72450079	    -20.18899963	     -8.30769244	     86.27826433	     44.59711886	      0.00000000	      0.00000000	    -10.77843124	     -7.35668350	     -2.14277759	     33.63162179	     46.27745512	      0.00000000	      0.00000000
     31.91357143	     -4.16263552	     -6.18215502	      2.83992058	      1.06211811	      0.93009032	      0.47103947	      8.35375796	      5.53705996	    -20.12229724	     12.27789523	     12.27789523	     11.72879788	      7.54072348	     -4.92023314	     35.27737016	    -13.94388593	     -5.59105284	     26.40568554	     26.40568554	     10.28049818	    -11.21539137	     13.57112712	    -12.64318208	      9.21363331	      3.60521065	     25.47325756	    -19.82468048	     -7.74800002	     88.80550487	     44.51093111	      0.00000000	      0.00000000	    -11.59032586	     -7.41673352	     -1.92686803	     33.10047286	     46.23208501	      0.00000000	      0.00000000
     31.92571429	     -4.33057923	     -6.18105992	      2.79070701	      1.06066717	      0.92980017	      0.47040617	      8.01045323	      5.54995732	    -20.04252333	     12.07573028	     12.07573028	     11.99538188	      7.70801260	     -4.93871253	     35.47828290	    -13.74728290	     -5.72570778	     24.56291724	     24.56291724	     10.11194775	    -10.02662239	     13.75587230	    -12.49939433	      9.23076593	      3.59901599	     26.20359464	    -19.79414607	     -7.51861353	     90.28762941	     44.46537051	      0.00000000	      0.00000000	    -12.14075028	     -7.36104325	     -1.78791677	     32.77820774	     46.20232339	      0.00000000	      0.00000000
     31.93785714	     -4.29574479	     -6.15024477	      2.69260436	      1.05955358	      0.92979745	      0.46983838	      7.36583029	      5.56493711	    -19.93496716	     11.77066210	     11.77066210	     12.31218467	      8.03931365	     -4.86752376	     35.46347237	    -13.61178962	     -6.09780172	     23.22172567	     23.22172567	     10.03318133	     -8.98554800	     13.80439407	    -12.63257124	      9.17436562	      3.44480833	     26.62528915	    -19.54169257	     -6.91348103	     92.70150314	     44.38331853	      0.00000000	      0.00000000	    -12.76926165	     -7.43870653	     -1.54343468	     32.24229198	     46.15545072	      0.00000000	      0.00000000
     31.95000000	     -4.40481810	     -6.14888893	      2.62751924	      1.05841234	      0.92955469	      0.46907980	      6.89634047	      5.58782948	    -19.84822967	     11.48685164	     11.48685164	     12.58688402	      8.25129549	     -4.80298308	     35.64658824	    -13.43752643	     -6.36223961	     22.32281651	     22.32281651	      9.86269446	     -8.33465515	     13.89613695	    -12.54960347	      9.15051146	      3.43949498	     27.01845002	    -19.47139700	     -6.56634761	     94.35293807	     44.33167230	      0.00000000	      0.00000000	    -13.15030436	     -7.39559442	     -1.34814884	     31.88119548	     46.11980855	      0.00000000	      0.00000000
     31.96214286	     -4.45961314	     -6.20860359	      2.58164372	      1.05739655	      0.92916052	      0.46824223	      6.47808459	      5.63559287	    -19.76718123	     11.44940149	     11.44940149	     12.98640158	      8.28915184	     -4.91548885	     35.97048588	    -13.30519694	     -6.40993741	     22.19084485	     22.19084485	      9.68301460	     -8.23861295	     13.97121810	    -12.40177666	      9.12401286	      3.65211817	     27.18813918	    -19.43734251	     -6.52954322	     94.55000072	     44.32563709	      0.00000000	      0.00000000	    -13.41321060	     -7.41399452	     -1.34351908	     31.76616430	     46.11490174	      0.00000000	      0.00000000
